<svg width="504" height="515" viewBox="0 0 504 515" fill="none" xmlns="http://www.w3.org/2000/svg">
<path opacity="0.7" d="M28.7988 160.824C28.7988 160.824 -3.542 244.344 41.9068 328.444C87.3556 412.544 180.968 456.972 255.892 494.962C330.816 532.952 408.618 514.45 445.587 452.228C482.556 390.006 431.852 345.589 431.783 256.861C431.713 168.132 445.065 144.642 396.983 69.6832C348.901 -5.27599 231.033 -21.8756 141.899 33.7232C52.7644 89.322 28.7988 160.824 28.7988 160.824Z" fill="white"/>
<path d="M21.0616 180.974C64.9328 137.114 102.088 173.909 117.748 115.016C153.104 -18.0244 299.752 -16.76 319.031 77.9076C353.773 248.428 505.095 140.142 503.97 262.266C502.81 392.662 406.878 494.266 234.85 504.37C80.7204 513.476 -51.6356 253.648 21.0616 180.974Z" fill="#608AF3"/>
<path opacity="0.7" d="M21.0616 180.974C64.9328 137.114 102.088 173.909 117.748 115.016C153.104 -18.0244 299.752 -16.76 319.031 77.9076C353.773 248.428 505.095 140.142 503.97 262.266C502.81 392.662 406.878 494.266 234.85 504.37C80.7204 513.476 -51.6356 253.648 21.0616 180.974Z" fill="white"/>
</svg>
