<svg width="472" height="419" viewBox="0 0 472 419" fill="none" xmlns="http://www.w3.org/2000/svg">
<path d="M423.591 69.48C394.73 3.6732 325.455 -21.1044 270.796 23.08C249.452 40.3176 236.135 67.7516 210 78.76C185.478 89.084 154.413 86.0448 127.895 91.636C71.4264 103.468 -4.60003 148.36 1.19997 217.531C3.74037 247.83 24.1796 281.482 34.2832 309.832C45.8832 342.451 52.8432 383.26 83.5484 402.76C136.189 436.237 199.688 408.873 247.108 381.88C272.628 367.368 286.676 358.448 314.156 363.424C339.595 368.064 362.505 384.304 387.364 365.036C406.028 350.571 407.571 321.258 423.243 304.044C440.898 284.648 458.797 283.245 467.972 254.094C479.097 218.726 462.706 196.628 451.628 165.029C440.55 133.431 437.186 100.44 423.591 69.48Z" fill="#CFB2DD"/>
<g opacity="0.7">
<path d="M423.591 69.48C394.73 3.6732 325.455 -21.1044 270.796 23.08C249.452 40.3176 236.135 67.7516 210 78.76C185.478 89.084 154.413 86.0448 127.895 91.636C71.4264 103.468 -4.60003 148.36 1.19997 217.531C3.74037 247.83 24.1796 281.482 34.2832 309.832C45.8832 342.451 52.8432 383.26 83.5484 402.76C136.189 436.237 199.688 408.873 247.108 381.88C272.628 367.368 286.676 358.448 314.156 363.424C339.595 368.064 362.505 384.304 387.364 365.036C406.028 350.571 407.571 321.258 423.243 304.044C440.898 284.648 458.797 283.245 467.972 254.094C479.097 218.726 462.706 196.628 451.628 165.029C440.55 133.431 437.186 100.44 423.591 69.48Z" fill="white"/>
</g>
</svg>
