<svg width="25" height="24" viewBox="0 0 25 24" fill="none" xmlns="http://www.w3.org/2000/svg">
<path d="M21.6933 18.7159C22.2533 17.8175 22.5683 16.7675 22.4983 15.6125C22.3466 13.1042 20.3516 10.9809 17.8666 10.7125C17.131 10.627 16.3855 10.698 15.6792 10.921C14.9729 11.144 14.3218 11.514 13.7687 12.0065C13.2155 12.499 12.7729 13.103 12.4698 13.7788C12.1666 14.4546 12.01 15.1869 12.01 15.9275C12.01 18.8325 14.355 21.1775 17.2483 21.1775C18.275 21.1775 19.2316 20.8742 20.0366 20.3609L22.8483 23.1725C23.3033 23.6275 24.05 23.6275 24.505 23.1725C24.96 22.7175 24.96 21.9709 24.505 21.5159L21.6933 18.7159ZM17.26 18.8442C16.4864 18.8442 15.7446 18.5369 15.1976 17.9899C14.6506 17.443 14.3433 16.7011 14.3433 15.9275C14.3433 15.154 14.6506 14.4121 15.1976 13.8651C15.7446 13.3182 16.4864 13.0109 17.26 13.0109C18.0335 13.0109 18.7754 13.3182 19.3224 13.8651C19.8694 14.4121 20.1766 15.154 20.1766 15.9275C20.1766 16.7011 19.8694 17.443 19.3224 17.9899C18.7754 18.5369 18.0335 18.8442 17.26 18.8442ZM16.84 8.92754C15.9766 8.95088 15.1483 9.13754 14.39 9.45254L13.7483 8.48421L10.155 14.3292C10.059 14.4858 9.92737 14.6174 9.77087 14.7135C9.61436 14.8096 9.43739 14.8674 9.25434 14.8822C9.07129 14.897 8.88734 14.8683 8.71745 14.7986C8.54756 14.7288 8.39653 14.62 8.27665 14.4809L5.80332 11.5992L2.23332 17.3159C1.87165 17.8875 1.10165 18.0392 0.553316 17.6425C0.0633158 17.2809 -0.0766842 16.6042 0.249982 16.0792L4.65998 9.02088C5.07998 8.35588 6.02498 8.28588 6.53832 8.88088L8.99998 11.7509L12.71 5.71921C12.812 5.55252 12.9544 5.41425 13.124 5.31719C13.2936 5.22013 13.485 5.16741 13.6804 5.16393C13.8758 5.16044 14.0689 5.20628 14.2419 5.29723C14.4148 5.38817 14.5621 5.52127 14.67 5.68421L16.84 8.92754ZM19.8616 9.51088C19.115 9.18421 18.31 8.98588 17.47 8.93921L22.7666 0.550877C23.1283 -0.0207894 23.8983 -0.160789 24.435 0.235877C24.9366 0.597544 25.065 1.28588 24.7383 1.79921L19.8616 9.51088Z" fill="white"/>
</svg>
