<svg width="23" height="23" viewBox="0 0 23 23" fill="none" xmlns="http://www.w3.org/2000/svg">
<path d="M6.15417 10.0009C5.70694 10.0009 5.37133 9.8018 5.14733 9.40358C4.92411 9.00458 4.92917 8.61063 5.1625 8.22174L9.50833 1.13424C9.74167 0.764801 10.0722 0.580078 10.5 0.580078C10.9278 0.580078 11.2583 0.764801 11.4917 1.13424L15.8375 8.22174C16.0708 8.61063 16.0755 9.00458 15.8515 9.40358C15.6283 9.8018 15.2931 10.0009 14.8458 10.0009H6.15417ZM16.9167 22.8342C15.4583 22.8342 14.2186 22.324 13.1973 21.3036C12.1769 20.2824 11.6667 19.0426 11.6667 17.5842C11.6667 16.1259 12.1769 14.8861 13.1973 13.8649C14.2186 12.8445 15.4583 12.3342 16.9167 12.3342C18.375 12.3342 19.6148 12.8445 20.636 13.8649C21.6564 14.8861 22.1667 16.1259 22.1667 17.5842C22.1667 19.0426 21.6564 20.2824 20.636 21.3036C19.6148 22.324 18.375 22.8342 16.9167 22.8342ZM1.16667 22.2509C0.836111 22.2509 0.559222 22.1389 0.336 21.9149C0.112 21.6917 0 21.4148 0 21.0842V14.0842C0 13.7537 0.112 13.4764 0.336 13.2524C0.559222 13.0292 0.836111 12.9176 1.16667 12.9176H8.16667C8.49722 12.9176 8.7745 13.0292 8.9985 13.2524C9.22172 13.4764 9.33333 13.7537 9.33333 14.0842V21.0842C9.33333 21.4148 9.22172 21.6917 8.9985 21.9149C8.7745 22.1389 8.49722 22.2509 8.16667 22.2509H1.16667Z" fill="white"/>
</svg>
