<svg width="21" height="24" viewBox="0 0 21 24" fill="none" xmlns="http://www.w3.org/2000/svg">
<path d="M2.33333 5.0009H4.66667V8.50089H16.3333V5.0009H18.6667V10.8342H21V5.0009C21 3.71756 19.95 2.66756 18.6667 2.66756H13.79C13.3 1.31423 12.0167 0.334229 10.5 0.334229C8.98333 0.334229 7.7 1.31423 7.21 2.66756H2.33333C1.05 2.66756 0 3.71756 0 5.0009V21.3342C0 22.6176 1.05 23.6676 2.33333 23.6676H9.33333V21.3342H2.33333V5.0009ZM10.5 2.66756C11.1417 2.66756 11.6667 3.19256 11.6667 3.83423C11.6667 4.47589 11.1417 5.0009 10.5 5.0009C9.85833 5.0009 9.33333 4.47589 9.33333 3.83423C9.33333 3.19256 9.85833 2.66756 10.5 2.66756Z" fill="white"/>
</svg>
