<svg width="24" height="21" viewBox="0 0 24 21" fill="none" xmlns="http://www.w3.org/2000/svg">
<path d="M10.1666 10.1676C8.88331 10.1676 7.7847 9.71062 6.87081 8.79673C5.95692 7.88284 5.49998 6.78423 5.49998 5.5009C5.49998 4.21756 5.95692 3.11895 6.87081 2.20506C7.7847 1.29117 8.88331 0.834229 10.1666 0.834229C11.45 0.834229 12.5486 1.29117 13.4625 2.20506C14.3764 3.11895 14.8333 4.21756 14.8333 5.5009C14.8333 6.78423 14.3764 7.88284 13.4625 8.79673C12.5486 9.71062 11.45 10.1676 10.1666 10.1676ZM1.99998 19.5009C1.66942 19.5009 1.39254 19.3889 1.16931 19.1649C0.945313 18.9417 0.833313 18.6648 0.833313 18.3342V16.2342C0.833313 15.5926 0.998591 14.9898 1.32915 14.4259C1.6597 13.862 2.11665 13.4342 2.69998 13.1426C3.69165 12.637 4.8097 12.2092 6.05415 11.8592C7.29859 11.5092 8.66942 11.3342 10.1666 11.3342H10.575C10.6916 11.3342 10.8083 11.3537 10.925 11.3926C10.7694 11.7426 10.638 12.1073 10.5306 12.4869C10.4241 12.8657 10.3416 13.2592 10.2833 13.6676C10.1861 14.3676 10.1569 14.9556 10.1958 15.4316C10.2347 15.9083 10.3416 16.487 10.5166 17.1676C10.6333 17.5759 10.7889 17.9796 10.9833 18.3786C11.1778 18.7768 11.3916 19.1509 11.625 19.5009H1.99998ZM18.3333 17.1676C18.975 17.1676 19.5245 16.9393 19.9818 16.4827C20.4384 16.0254 20.6666 15.4759 20.6666 14.8342C20.6666 14.1926 20.4384 13.6431 19.9818 13.1857C19.5245 12.7292 18.975 12.5009 18.3333 12.5009C17.6916 12.5009 17.1425 12.7292 16.686 13.1857C16.2286 13.6431 16 14.1926 16 14.8342C16 15.4759 16.2286 16.0254 16.686 16.4827C17.1425 16.9393 17.6916 17.1676 18.3333 17.1676ZM16.8166 18.9176C16.5833 18.8203 16.3644 18.7185 16.1598 18.6119C15.956 18.5046 15.7472 18.3731 15.5333 18.2176L14.2791 18.5967C14.143 18.6356 14.0166 18.6306 13.9 18.5816C13.7833 18.5333 13.6861 18.4509 13.6083 18.3342L12.9083 17.1676C12.8305 17.0509 12.8064 16.9245 12.836 16.7884C12.8648 16.6523 12.9375 16.5356 13.0541 16.4384L14.0166 15.5926C13.9778 15.3203 13.9583 15.0676 13.9583 14.8342C13.9583 14.6009 13.9778 14.3481 14.0166 14.0759L13.0541 13.2301C12.9375 13.1328 12.8648 13.0162 12.836 12.8801C12.8064 12.7439 12.8305 12.6176 12.9083 12.5009L13.6083 11.3342C13.6861 11.2176 13.7833 11.1347 13.9 11.0857C14.0166 11.0375 14.143 11.0328 14.2791 11.0717L15.5333 11.4509C15.7472 11.2953 15.956 11.1639 16.1598 11.0566C16.3644 10.95 16.5833 10.8481 16.8166 10.7509L17.0791 9.46756C17.118 9.33145 17.1861 9.21984 17.2833 9.13273C17.3805 9.04484 17.4972 9.00089 17.6333 9.00089H19.0333C19.1694 9.00089 19.2861 9.04484 19.3833 9.13273C19.4805 9.21984 19.5486 9.33145 19.5875 9.46756L19.85 10.7509C20.0833 10.8481 20.3023 10.9551 20.5068 11.0717C20.7106 11.1884 20.9194 11.3342 21.1333 11.5092L22.3583 11.0717C22.4944 11.0134 22.6259 11.0134 22.7526 11.0717C22.8786 11.1301 22.9805 11.2176 23.0583 11.3342L23.7583 12.5592C23.8361 12.6759 23.8653 12.8023 23.8458 12.9384C23.8264 13.0745 23.7583 13.1912 23.6416 13.2884L22.65 14.1342C22.6889 14.3676 22.7083 14.6106 22.7083 14.8634C22.7083 15.1162 22.6889 15.3592 22.65 15.5926L23.6125 16.4384C23.7291 16.5356 23.8019 16.6523 23.8306 16.7884C23.8602 16.9245 23.8361 17.0509 23.7583 17.1676L23.0583 18.3342C22.9805 18.4509 22.8833 18.5333 22.7666 18.5816C22.65 18.6306 22.5236 18.6356 22.3875 18.5967L21.1333 18.2176C20.9194 18.3731 20.7106 18.5046 20.5068 18.6119C20.3023 18.7185 20.0833 18.8203 19.85 18.9176L19.5875 20.2009C19.5486 20.337 19.4805 20.4486 19.3833 20.5357C19.2861 20.6236 19.1694 20.6676 19.0333 20.6676H17.6333C17.4972 20.6676 17.3805 20.6236 17.2833 20.5357C17.1861 20.4486 17.118 20.337 17.0791 20.2009L16.8166 18.9176Z" fill="white"/>
</svg>
