<svg width="22" height="22" viewBox="0 0 22 22" fill="none" xmlns="http://www.w3.org/2000/svg">
<path d="M14.8792 15.9875C14.6653 15.7347 14.5583 15.4477 14.5583 15.1265C14.5583 14.8061 14.6653 14.5389 14.8792 14.325L17.0375 12.1667H8.66667C8.33611 12.1667 8.05922 12.0547 7.836 11.8307C7.612 11.6074 7.5 11.3306 7.5 11C7.5 10.6694 7.612 10.3922 7.836 10.1682C8.05922 9.94494 8.33611 9.83333 8.66667 9.83333H17.0375L14.8792 7.675C14.6458 7.44167 14.5292 7.16478 14.5292 6.84433C14.5292 6.52311 14.6458 6.24583 14.8792 6.0125C15.0931 5.77917 15.3606 5.6625 15.6818 5.6625C16.0023 5.6625 16.2694 5.76944 16.4833 5.98333L20.6833 10.1833C20.8 10.3 20.8828 10.4264 20.9318 10.5625C20.9801 10.6986 21.0042 10.8444 21.0042 11C21.0042 11.1556 20.9801 11.3014 20.9318 11.4375C20.8828 11.5736 20.8 11.7 20.6833 11.8167L16.4833 16.0167C16.2306 16.2694 15.9537 16.3811 15.6527 16.3515C15.3509 16.3227 15.0931 16.2014 14.8792 15.9875ZM2.83333 21.5C2.19167 21.5 1.64217 21.2717 1.18483 20.8152C0.728278 20.3578 0.5 19.8083 0.5 19.1667V2.83333C0.5 2.19167 0.728278 1.64217 1.18483 1.18483C1.64217 0.728278 2.19167 0.5 2.83333 0.5H9.83333C10.1639 0.5 10.4412 0.611611 10.6652 0.834833C10.8884 1.05883 11 1.33611 11 1.66667C11 1.99722 10.8884 2.27411 10.6652 2.49733C10.4412 2.72133 10.1639 2.83333 9.83333 2.83333H2.83333V19.1667H9.83333C10.1639 19.1667 10.4412 19.2787 10.6652 19.5027C10.8884 19.7259 11 20.0028 11 20.3333C11 20.6639 10.8884 20.9408 10.6652 21.164C10.4412 21.388 10.1639 21.5 9.83333 21.5H2.83333Z" fill="white"/>
</svg>
